<svg width="35" height="43" viewBox="0 0 35 43" fill="none" xmlns="http://www.w3.org/2000/svg">
<path d="M29.224 22.6804C29.2041 19.2837 30.7431 16.7237 33.8509 14.8361C32.1127 12.3459 29.483 10.9763 26.0166 10.7123C22.7345 10.4533 19.1436 12.6248 17.8287 12.6248C16.4392 12.6248 13.2616 10.802 10.7614 10.802C5.60166 10.8816 0.118164 14.9158 0.118164 23.1236C0.118164 25.5491 0.561426 28.0543 1.44795 30.6342C2.6333 34.0309 6.90654 42.3532 11.3641 42.2188C13.6949 42.164 15.3435 40.5652 18.3766 40.5652C21.32 40.5652 22.844 42.2188 25.4438 42.2188C29.9412 42.154 33.8061 34.5887 34.9316 31.182C28.9003 28.3382 29.224 22.8547 29.224 22.6804ZM23.9895 7.48994C26.5146 4.4917 26.2855 1.7624 26.2108 0.78125C23.9796 0.910742 21.3997 2.30029 19.9305 4.00859C18.3118 5.84141 17.3605 8.10752 17.5647 10.6625C19.9753 10.8468 22.1767 9.60664 23.9895 7.48994Z" fill="white"/>
</svg>
