<svg width="86" height="72" viewBox="0 0 86 72" fill="none" xmlns="http://www.w3.org/2000/svg">
<path d="M31.9875 36.125H40.125C44.6005 36.125 48.8927 37.9029 52.0574 41.0676C55.2221 44.2322 57 48.5245 57 53H30.7462L30.75 56.75H60.75V53C60.7382 49.0099 59.5853 45.1063 57.4275 41.75H68.25C71.7947 41.749 75.2671 42.7529 78.2645 44.6452C81.2619 46.5374 83.6615 49.2406 85.185 52.4412C76.3163 64.145 61.9575 71.75 45.75 71.75C35.3963 71.75 26.625 69.5375 19.5 65.6562V30.7662C24.0623 31.4198 28.3705 33.2686 31.9875 36.125ZM15.75 64.25C15.75 65.2446 15.3549 66.1984 14.6516 66.9016C13.9484 67.6049 12.9946 68 12 68H4.5C3.50544 68 2.55161 67.6049 1.84835 66.9016C1.14509 66.1984 0.75 65.2446 0.75 64.25V30.5C0.75 29.5054 1.14509 28.5516 1.84835 27.8483C2.55161 27.1451 3.50544 26.75 4.5 26.75H12C12.9946 26.75 13.9484 27.1451 14.6516 27.8483C15.3549 28.5516 15.75 29.5054 15.75 30.5V64.25ZM64.5 11.75C67.4837 11.75 70.3452 12.9353 72.455 15.045C74.5647 17.1548 75.75 20.0163 75.75 23C75.75 25.9837 74.5647 28.8452 72.455 30.9549C70.3452 33.0647 67.4837 34.25 64.5 34.25C61.5163 34.25 58.6548 33.0647 56.545 30.9549C54.4353 28.8452 53.25 25.9837 53.25 23C53.25 20.0163 54.4353 17.1548 56.545 15.045C58.6548 12.9353 61.5163 11.75 64.5 11.75ZM38.25 0.5C41.2337 0.5 44.0952 1.68526 46.205 3.79505C48.3147 5.90483 49.5 8.76631 49.5 11.75C49.5 14.7337 48.3147 17.5952 46.205 19.7049C44.0952 21.8147 41.2337 23 38.25 23C35.2663 23 32.4048 21.8147 30.295 19.7049C28.1853 17.5952 27 14.7337 27 11.75C27 8.76631 28.1853 5.90483 30.295 3.79505C32.4048 1.68526 35.2663 0.5 38.25 0.5Z" fill="#184DBD"/>
</svg>
