<svg width="101" height="84" viewBox="0 0 101 84" fill="none" xmlns="http://www.w3.org/2000/svg">
<path d="M67.3333 0.8C63.125 0.8 59.7583 4 59.7583 8C59.7583 12 63.125 15.2 67.3333 15.2C71.5417 15.2 74.9083 12 74.9083 8C74.9083 4 71.5417 0.8 67.3333 0.8ZM52.1833 12.4C50.2054 12.4 48.3958 13.16 47.1333 14.4L31.5625 29.16C30.2579 30.4 29.4583 32 29.4583 34C29.4583 36.52 30.8471 38.64 33.0354 39.88L47.1333 48V68H54.7083V42L45.2396 35.4L55.0029 26L62.2833 36H79.9583V28.8H66.4917L58.3275 15.72C57.1071 13.72 54.7083 12.4 52.1833 12.4ZM42.0833 8H12.625C10.3104 8 8.41667 6.2 8.41667 4C8.41667 1.8 10.3104 0 12.625 0H53.8246C52.9408 1.36 52.2254 2.84 51.8467 4.44C48.2275 4.52 44.8188 5.8 42.0833 8ZM21.0417 44C9.42667 44 0 52.96 0 64C0 75.04 9.42667 84 21.0417 84C32.6567 84 42.0833 75.04 42.0833 64C42.0833 52.96 32.6567 44 21.0417 44ZM21.0417 78C12.9196 78 6.3125 71.72 6.3125 64C6.3125 56.28 12.9196 50 21.0417 50C29.1638 50 35.7708 56.28 35.7708 64C35.7708 71.72 29.1638 78 21.0417 78ZM79.9583 44C68.3433 44 58.9167 52.96 58.9167 64C58.9167 75.04 68.3433 84 79.9583 84C91.5733 84 101 75.04 101 64C101 52.96 91.5733 44 79.9583 44ZM79.9583 78C71.8363 78 65.2292 71.72 65.2292 64C65.2292 56.28 71.8363 50 79.9583 50C88.0804 50 94.6875 56.28 94.6875 64C94.6875 71.72 88.0804 78 79.9583 78ZM22.3883 40H4.20833C1.88533 40 0 38.2 0 36C0 33.8 1.88533 32 4.20833 32H21.2521C21.1679 32.64 21.0417 33.32 21.0417 34C21.0417 36.12 21.5467 38.16 22.3883 40ZM25.25 24H8.41667C6.10208 24 4.20833 22.2 4.20833 20C4.20833 17.8 6.10208 16 8.41667 16H33.5404L25.6288 23.48C25.4604 23.64 25.25 23.84 25.25 24Z" fill="#184DBD"/>
</svg>
