<svg width="29" height="31" viewBox="0 0 29 31" fill="none" xmlns="http://www.w3.org/2000/svg">
<path d="M0.00899955 15.508C-0.277989 7.95191 6.34048 0.969164 13.9042 0.87857C17.7592 0.549769 21.5097 2.0468 24.4271 4.48841C23.2303 5.80425 22.0127 7.10488 20.7121 8.32252C18.1437 6.76214 15.0515 5.57301 12.0498 6.6291C7.20841 8.00766 4.27644 13.724 6.06806 18.4602C7.55178 23.4068 13.5684 26.1215 18.2837 24.0435C20.7254 23.1692 22.3352 20.9164 23.0415 18.4957C20.2432 18.44 17.4443 18.4748 14.646 18.3975C14.6391 16.7326 14.6321 15.074 14.6391 13.4091C19.3056 13.4021 23.9792 13.3882 28.6527 13.43C28.9397 17.5093 28.3378 21.8749 25.6859 25.149C22.0545 29.8226 15.3454 31.1941 9.8876 29.3607C4.09525 27.4582 -0.117072 21.6228 0.00899955 15.508Z" fill="white"/>
</svg>
