<svg width="27" height="27" viewBox="0 0 27 27" fill="none" xmlns="http://www.w3.org/2000/svg">
<path d="M8.97544 13.4621C8.97544 10.9839 10.9839 8.97436 13.4621 8.97436C15.9403 8.97436 17.9498 10.9839 17.9498 13.4621C17.9498 15.9403 15.9403 17.9498 13.4621 17.9498C10.9839 17.9498 8.97544 15.9403 8.97544 13.4621ZM6.54946 13.4621C6.54946 17.2799 9.64423 20.3747 13.4621 20.3747C17.2799 20.3747 20.3747 17.2799 20.3747 13.4621C20.3747 9.64423 17.2799 6.54946 13.4621 6.54946C9.64423 6.54946 6.54946 9.64423 6.54946 13.4621ZM19.0329 6.27537C19.0328 6.59488 19.1274 6.90725 19.3048 7.17298C19.4822 7.43871 19.7344 7.64587 20.0295 7.76825C20.3247 7.89064 20.6495 7.92276 20.9629 7.86056C21.2763 7.79835 21.5642 7.64461 21.7902 7.41877C22.0162 7.19294 22.1702 6.90515 22.2326 6.59181C22.2951 6.27847 22.2632 5.95365 22.1411 5.65841C22.0189 5.36318 21.812 5.1108 21.5464 4.93318C21.2808 4.75557 20.9685 4.6607 20.649 4.66057H20.6483C20.2201 4.66077 19.8094 4.83095 19.5065 5.13372C19.2036 5.43649 19.0333 5.8471 19.0329 6.27537ZM8.0234 24.4199C6.7109 24.3601 5.99752 24.1415 5.52344 23.9568C4.89492 23.7121 4.44647 23.4207 3.97497 22.9498C3.50348 22.479 3.21162 22.031 2.96801 21.4024C2.7832 20.9286 2.56458 20.215 2.50492 18.9025C2.43965 17.4835 2.42662 17.0572 2.42662 13.4622C2.42662 9.86716 2.44073 9.44209 2.50492 8.02189C2.56469 6.70939 2.78493 5.99719 2.96801 5.52193C3.2127 4.89341 3.50412 4.44496 3.97497 3.97347C4.44582 3.50197 4.89384 3.21011 5.52344 2.9665C5.9973 2.7817 6.7109 2.56307 8.0234 2.50341C9.44241 2.43814 9.86867 2.42511 13.4621 2.42511C17.0555 2.42511 17.4822 2.43922 18.9024 2.50341C20.2149 2.56318 20.9271 2.78342 21.4023 2.9665C22.0309 3.21011 22.4793 3.50262 22.9508 3.97347C23.4223 4.44432 23.7131 4.89341 23.9578 5.52193C24.1426 5.99579 24.3612 6.70939 24.4209 8.02189C24.4861 9.44209 24.4991 9.86716 24.4991 13.4622C24.4991 17.0572 24.4861 17.4823 24.4209 18.9025C24.3611 20.215 24.1414 20.9284 23.9578 21.4024C23.7131 22.031 23.4216 22.4794 22.9508 22.9498C22.4799 23.4202 22.0309 23.7121 21.4023 23.9568C20.9285 24.1416 20.2149 24.3602 18.9024 24.4199C17.4834 24.4852 17.0571 24.4982 13.4621 24.4982C9.86706 24.4982 9.44198 24.4852 8.0234 24.4199ZM7.91193 0.0815263C6.47881 0.146791 5.49953 0.37403 4.64431 0.706813C3.75861 1.05047 3.00883 1.51152 2.25958 2.25958C1.51034 3.00764 1.05047 3.75861 0.706813 4.64431C0.37403 5.50007 0.14679 6.47881 0.0815263 7.91193C0.0151852 9.34731 0 9.80621 0 13.4621C0 17.1179 0.0151852 17.5768 0.0815263 19.0122C0.14679 20.4454 0.37403 21.4241 0.706813 22.2798C1.05047 23.165 1.51044 23.9168 2.25958 24.6646C3.00872 25.4123 3.75861 25.8727 4.64431 26.2173C5.50114 26.5501 6.47881 26.7774 7.91193 26.8426C9.34807 26.9079 9.80621 26.9242 13.4621 26.9242C17.1179 26.9242 17.5768 26.909 19.0122 26.8426C20.4454 26.7774 21.4241 26.5501 22.2798 26.2173C23.165 25.8727 23.9153 25.4126 24.6646 24.6646C25.4138 23.9165 25.8727 23.165 26.2173 22.2798C26.5501 21.4241 26.7784 20.4453 26.8426 19.0122C26.9079 17.5758 26.9231 17.1179 26.9231 13.4621C26.9231 9.80621 26.9079 9.34731 26.8426 7.91193C26.7774 6.47871 26.5501 5.49953 26.2173 4.64431C25.8727 3.75915 25.4126 3.00883 24.6646 2.25958C23.9165 1.51034 23.165 1.05047 22.2809 0.706813C21.4241 0.37403 20.4453 0.145714 19.0133 0.0815263C17.5779 0.0162622 17.119 0 13.4632 0C9.80728 0 9.34807 0.0151852 7.91193 0.0815263Z" fill="white"/>
</svg>
