<svg width="65" height="101" viewBox="0 0 65 101" fill="none" xmlns="http://www.w3.org/2000/svg">
<path d="M51.4375 6.3125C53.1117 6.3125 54.7173 6.97756 55.9011 8.16139C57.0849 9.34521 57.75 10.9508 57.75 12.625V88.375C57.75 90.0492 57.0849 91.6548 55.9011 92.8386C54.7173 94.0224 53.1117 94.6875 51.4375 94.6875H13.5625C11.8883 94.6875 10.2827 94.0224 9.09889 92.8386C7.91507 91.6548 7.25 90.0492 7.25 88.375V12.625C7.25 10.9508 7.91507 9.34521 9.09889 8.16139C10.2827 6.97756 11.8883 6.3125 13.5625 6.3125H51.4375ZM13.5625 0C10.2141 0 7.00292 1.33013 4.63528 3.69778C2.26763 6.06542 0.9375 9.27664 0.9375 12.625V88.375C0.9375 91.7234 2.26763 94.9346 4.63528 97.3022C7.00292 99.6699 10.2141 101 13.5625 101H51.4375C54.7859 101 57.9971 99.6699 60.3647 97.3022C62.7324 94.9346 64.0625 91.7234 64.0625 88.375V12.625C64.0625 9.27664 62.7324 6.06542 60.3647 3.69778C57.9971 1.33013 54.7859 0 51.4375 0L13.5625 0Z" fill="#184DBD"/>
</svg>
