<svg width="51" height="51" viewBox="0 0 51 51" fill="none" xmlns="http://www.w3.org/2000/svg">
<path d="M4.78125 5.92583V45.0723C4.78151 45.1572 4.80684 45.2402 4.85407 45.3108C4.90129 45.3814 4.96831 45.4365 5.04671 45.4691C5.12511 45.5018 5.21141 45.5106 5.29478 45.4944C5.37815 45.4782 5.45489 45.4377 5.51537 45.3781L25.8984 25.5001L5.51537 5.62003C5.45489 5.5604 5.37815 5.51995 5.29478 5.50376C5.21141 5.48757 5.12511 5.49635 5.04671 5.52901C4.96831 5.56167 4.90129 5.61675 4.85407 5.68734C4.80684 5.75793 4.78151 5.8409 4.78125 5.92583Z" fill="#228DEF"/>
<path d="M34.4447 17.3321L8.88696 3.2513L8.87103 3.24234C8.43075 3.00328 8.01239 3.59894 8.37298 3.94558L28.4074 23.1025L34.4447 17.3321Z" fill="#1FB86E"/>
<path d="M8.37415 47.0544C8.01157 47.401 8.42993 47.9967 8.87219 47.7576L8.88813 47.7486L34.4439 33.6679L28.4066 27.8955L8.37415 47.0544Z" fill="#FF1818"/>
<path d="M44.7637 23.0097L37.6267 19.0791L30.916 25.4999L37.6267 31.9178L44.7637 27.9902C46.7051 26.9174 46.7051 24.0825 44.7637 23.0097Z" fill="#EDFF1B"/>
</svg>
