<svg width="26" height="22" viewBox="0 0 26 22" fill="none" xmlns="http://www.w3.org/2000/svg">
<path d="M23.2872 5.71635C23.2872 5.95192 23.2872 6.1875 23.2872 6.38942C23.2872 13.3558 17.9699 21.399 8.27757 21.399C5.28238 21.399 2.52276 20.524 0.166992 19.0433C0.570838 19.0769 1.00834 19.1106 1.41218 19.1106C3.86891 19.1106 6.15738 18.2692 7.97468 16.8558C5.65257 16.8221 3.70065 15.274 3.06122 13.1875C3.39776 13.2548 3.70065 13.2885 4.07084 13.2885C4.54199 13.2885 5.01315 13.2212 5.45065 13.0865C3.02757 12.6154 1.21026 10.4952 1.21026 7.9375C1.21026 7.90385 1.21026 7.90385 1.21026 7.87019C1.91699 8.27404 2.72468 8.50962 3.59968 8.54327C2.18622 7.60096 1.24392 5.98558 1.24392 4.13462C1.24392 3.15865 1.51315 2.25 1.95065 1.47596C4.54199 4.67308 8.44584 6.75962 12.8208 6.99519C12.7199 6.625 12.6862 6.1875 12.6862 5.78365C12.6862 2.85577 15.042 0.5 17.9699 0.5C19.4843 0.5 20.8641 1.13942 21.8064 2.14904C23.018 1.91346 24.1285 1.47596 25.1718 0.870192C24.768 2.11538 23.9266 3.125 22.8497 3.79808C23.9266 3.66346 24.9362 3.39423 25.8785 2.95673C25.2055 4.03365 24.3305 4.97596 23.2872 5.71635Z" fill="white"/>
</svg>
